<svg xmlns="http://www.w3.org/2000/svg" viewBox="0 0 660 300" font-family="Segoe UI, Roboto, Helvetica, Arial, sans-serif" role="img" aria-label="Dashboard story flow: start with a business question, choose a chart, find an insight, then take action.">
  <title>Dashboard Story Flow</title>

  <!-- title -->
  <text x="330" y="34" text-anchor="middle" font-size="20" font-weight="700" fill="#0a1628">Dashboard Story Flow</text>
  <text x="330" y="56" text-anchor="middle" font-size="13" fill="#6b6f78">Every dashboard should answer a question and drive action</text>

  <!-- Question -->
  <g>
    <rect x="25" y="95" width="135" height="108" rx="16" fill="#eef4fb" stroke="#0b4f8c" stroke-width="1.5"/>
    <circle cx="92" cy="130" r="18" fill="#0b4f8c"/>
    <text x="92" y="136" text-anchor="middle" font-size="16" font-weight="700" fill="#ffffff">?</text>
    <text x="92" y="168" text-anchor="middle" font-size="14" font-weight="700" fill="#0a1628">Question</text>
    <text x="92" y="185" text-anchor="middle" font-size="11" fill="#6b6f78">What do we</text>
    <text x="92" y="198" text-anchor="middle" font-size="11" fill="#6b6f78">need to know?</text>
  </g>

  <!-- Chart -->
  <g>
    <rect x="185" y="95" width="135" height="108" rx="16" fill="#ecfaf2" stroke="#1f9d57" stroke-width="1.5"/>
    <circle cx="252" cy="130" r="18" fill="#1f9d57"/>
    <rect x="243" y="136" width="5" height="10" fill="#ffffff"/>
    <rect x="250" y="128" width="5" height="18" fill="#ffffff"/>
    <rect x="257" y="132" width="5" height="14" fill="#ffffff"/>
    <text x="252" y="168" text-anchor="middle" font-size="14" font-weight="700" fill="#0a1628">Chart</text>
    <text x="252" y="185" text-anchor="middle" font-size="11" fill="#6b6f78">Right visual</text>
    <text x="252" y="198" text-anchor="middle" font-size="11" fill="#6b6f78">for the data</text>
  </g>

  <!-- Insight -->
  <g>
    <rect x="345" y="95" width="135" height="108" rx="16" fill="#fef6e7" stroke="#f59e0b" stroke-width="1.5"/>
    <circle cx="412" cy="130" r="18" fill="#f59e0b"/>
    <circle cx="412" cy="130" r="8" fill="#ffffff"/>
    <circle cx="412" cy="130" r="3" fill="#f59e0b"/>
    <text x="412" y="168" text-anchor="middle" font-size="14" font-weight="700" fill="#0a1628">Insight</text>
    <text x="412" y="185" text-anchor="middle" font-size="11" fill="#6b6f78">What the data</text>
    <text x="412" y="198" text-anchor="middle" font-size="11" fill="#6b6f78">reveals</text>
  </g>

  <!-- Action -->
  <g>
    <rect x="505" y="95" width="135" height="108" rx="16" fill="#fdecec" stroke="#dc2626" stroke-width="1.5"/>
    <circle cx="572" cy="130" r="18" fill="#dc2626"/>
    <path d="M566 130 l5 5 12 -12" fill="none" stroke="#ffffff" stroke-width="3" stroke-linecap="round" stroke-linejoin="round"/>
    <text x="572" y="168" text-anchor="middle" font-size="14" font-weight="700" fill="#0a1628">Action</text>
    <text x="572" y="185" text-anchor="middle" font-size="11" fill="#6b6f78">Decision or</text>
    <text x="572" y="198" text-anchor="middle" font-size="11" fill="#6b6f78">next step</text>
  </g>

  <!-- arrows -->
  <g stroke="#9aa3af" stroke-width="2.5" fill="#9aa3af">
    <line x1="160" y1="145" x2="182" y2="145"/>
    <polygon points="182,138 195,145 182,152"/>
    <line x1="320" y1="145" x2="342" y2="145"/>
    <polygon points="342,138 355,145 342,152"/>
    <line x1="480" y1="145" x2="502" y2="145"/>
    <polygon points="502,138 515,145 502,152"/>
  </g>

  <!-- Example -->
  <g>
    <rect x="30" y="220" width="600" height="55" rx="12" fill="#f7f8fa" stroke="#d8dee6" stroke-width="1.5"/>
    <text x="330" y="240" text-anchor="middle" font-size="12" font-weight="700" fill="#0a1628">Example: Why did sales drop last week?</text>
    <text x="330" y="260" text-anchor="middle" font-size="11" fill="#6b6f78">Line chart shows a dip on Wednesday - insight: stockout in Kitwe - action: reorder sooner.</text>
  </g>
</svg>
