<svg xmlns="http://www.w3.org/2000/svg" viewBox="0 0 720 300" font-family="Segoe UI, Roboto, Helvetica, Arial, sans-serif" role="img" aria-label="The five-stage procurement cycle used by Zambian organisations from identifying a need to paying the supplier.">
  <title>The procurement cycle</title>

  <text x="360" y="34" text-anchor="middle" font-size="20" font-weight="700" fill="#0a1628">The Procurement Cycle</text>
  <text x="360" y="56" text-anchor="middle" font-size="13" fill="#6b6f78">How a need becomes a purchased, inspected and paid-for item</text>

  <!-- Stage 1: Identify Need -->
  <g>
    <rect x="30" y="92" width="118" height="150" rx="16" fill="#eef4fb" stroke="#0b4f8c" stroke-width="1.5"/>
    <circle cx="89" cy="128" r="12" fill="none" stroke="#0b4f8c" stroke-width="3"/>
    <line x1="97" y1="136" x2="107" y2="146" stroke="#0b4f8c" stroke-width="3" stroke-linecap="round"/>
    <text x="89" y="184" text-anchor="middle" font-size="15" font-weight="700" fill="#0a1628">Identify Need</text>
    <text x="89" y="205" text-anchor="middle" font-size="12" fill="#6b6f78">User defines what,</text>
    <text x="89" y="220" text-anchor="middle" font-size="12" fill="#6b6f78">when and why</text>
  </g>

  <g stroke="#9aa3af" stroke-width="2.5" fill="#9aa3af">
    <line x1="148" y1="167" x2="170" y2="167"/>
    <polygon points="170,160 170,174 154,167"/>
  </g>

  <!-- Stage 2: Select Supplier -->
  <g>
    <rect x="170" y="92" width="118" height="150" rx="16" fill="#f7f8fa" stroke="#d8dee6" stroke-width="1.5"/>
    <rect x="77" y="112" width="24" height="36" transform="translate(170 0)" fill="#6b6f78"/>
    <rect x="82" y="132" width="6" height="16" transform="translate(170 0)" fill="#f7f8fa"/>
    <rect x="92" y="124" width="5" height="8" transform="translate(170 0)" fill="#f7f8fa"/>
    <text x="229" y="184" text-anchor="middle" font-size="15" font-weight="700" fill="#0a1628">Select Supplier</text>
    <text x="229" y="205" text-anchor="middle" font-size="12" fill="#6b6f78">Compare quotes,</text>
    <text x="229" y="220" text-anchor="middle" font-size="12" fill="#6b6f78">ZPPA rules if public</text>
  </g>

  <g stroke="#9aa3af" stroke-width="2.5" fill="#9aa3af">
    <line x1="288" y1="167" x2="310" y2="167"/>
    <polygon points="310,160 310,174 294,167"/>
  </g>

  <!-- Stage 3: Place Order -->
  <g>
    <rect x="310" y="92" width="118" height="150" rx="16" fill="#ecfaf2" stroke="#1f9d57" stroke-width="2"/>
    <rect x="79" y="112" width="22" height="30" rx="2" transform="translate(310 0)" fill="#1f9d57"/>
    <line x1="84" y1="122" x2="96" y2="122" stroke="#ecfaf2" stroke-width="2" transform="translate(310 0)"/>
    <line x1="84" y1="129" x2="96" y2="129" stroke="#ecfaf2" stroke-width="2" transform="translate(310 0)"/>
    <line x1="84" y1="136" x2="90" y2="136" stroke="#ecfaf2" stroke-width="2" transform="translate(310 0)"/>
    <text x="369" y="184" text-anchor="middle" font-size="15" font-weight="700" fill="#0a1628">Place Order</text>
    <text x="369" y="205" text-anchor="middle" font-size="12" fill="#6b6f78">Issue PO or LPO,</text>
    <text x="369" y="220" text-anchor="middle" font-size="12" fill="#6b6f78">agree terms</text>
  </g>

  <g stroke="#9aa3af" stroke-width="2.5" fill="#9aa3af">
    <line x1="428" y1="167" x2="450" y2="167"/>
    <polygon points="450,160 450,174 434,167"/>
  </g>

  <!-- Stage 4: Receive & Inspect -->
  <g>
    <rect x="450" y="92" width="118" height="150" rx="16" fill="#fef6e7" stroke="#f59e0b" stroke-width="1.5"/>
    <rect x="80" y="116" width="24" height="20" rx="2" transform="translate(450 0)" fill="none" stroke="#f59e0b" stroke-width="2"/>
    <polyline points="456,135 464,142 474,130" fill="none" stroke="#f59e0b" stroke-width="2.5" stroke-linecap="round" stroke-linejoin="round"/>
    <text x="509" y="184" text-anchor="middle" font-size="15" font-weight="700" fill="#0a1628">Receive &amp; Inspect</text>
    <text x="509" y="205" text-anchor="middle" font-size="12" fill="#6b6f78">Check quantity,</text>
    <text x="509" y="220" text-anchor="middle" font-size="12" fill="#6b6f78">quality and GRN</text>
  </g>

  <g stroke="#9aa3af" stroke-width="2.5" fill="#9aa3af">
    <line x1="568" y1="167" x2="590" y2="167"/>
    <polygon points="590,160 590,174 574,167"/>
  </g>

  <!-- Stage 5: Pay & Record -->
  <g>
    <rect x="590" y="92" width="118" height="150" rx="16" fill="#ecfaf2" stroke="#1f9d57" stroke-width="1.5"/>
    <rect x="78" y="118" width="28" height="20" rx="2" transform="translate(590 0)" fill="#1f9d57"/>
    <circle cx="678" cy="130" r="4" fill="#ecfaf2"/>
    <text x="649" y="184" text-anchor="middle" font-size="15" font-weight="700" fill="#0a1628">Pay &amp; Record</text>
    <text x="649" y="205" text-anchor="middle" font-size="12" fill="#6b6f78">Process invoice,</text>
    <text x="649" y="220" text-anchor="middle" font-size="12" fill="#6b6f78">update records</text>
  </g>

  <text x="360" y="284" text-anchor="middle" font-size="11.5" fill="#9aa3af">Public bodies in Zambia also publish tenders and follow ZPPA Act review steps.</text>
</svg>
