<svg xmlns="http://www.w3.org/2000/svg" viewBox="0 0 720 280" font-family="Segoe UI, Roboto, Helvetica, Arial, sans-serif" role="img" aria-label="Document flow in a Zambian office: create, review, approve, distribute and file.">
  <title>Document flow in an office</title>

  <text x="360" y="32" text-anchor="middle" font-size="20" font-weight="700" fill="#0a1628">Document Flow in a Zambian Office</text>
  <text x="360" y="54" text-anchor="middle" font-size="13" fill="#6b6f78">Create → Review → Approve → Distribute → File</text>

  <!-- Create -->
  <g>
    <rect x="30" y="78" width="116" height="152" rx="16" fill="#eef4fb" stroke="#0b4f8c" stroke-width="1.5"/>
    <rect x="62" y="108" width="52" height="68" rx="4" fill="#0b4f8c"/>
    <rect x="70" y="122" width="36" height="4" rx="1" fill="#ffffff"/>
    <rect x="70" y="134" width="36" height="4" rx="1" fill="#ffffff"/>
    <rect x="70" y="146" width="24" height="4" rx="1" fill="#ffffff"/>
    <text x="88" y="196" text-anchor="middle" font-size="15" font-weight="700" fill="#0a1628">Create</text>
    <text x="88" y="215" text-anchor="middle" font-size="12" fill="#6b6f78">Draft memo,</text>
    <text x="88" y="230" text-anchor="middle" font-size="12" fill="#6b6f78">letter or form</text>
  </g>

  <!-- arrow -->
  <g stroke="#9aa3af" stroke-width="2.5" fill="#9aa3af">
    <line x1="150" y1="154" x2="166" y2="154"/>
    <polygon points="166,147 178,154 166,161"/>
  </g>

  <!-- Review -->
  <g>
    <rect x="166" y="78" width="116" height="152" rx="16" fill="#fef6e7" stroke="#f59e0b" stroke-width="1.5"/>
    <circle cx="224" cy="136" r="16" fill="#f59e0b"/>
    <circle cx="224" cy="136" r="10" fill="none" stroke="#ffffff" stroke-width="2.5"/>
    <line x1="232" y1="144" x2="244" y2="156" stroke="#f59e0b" stroke-width="4" stroke-linecap="round"/>
    <text x="224" y="196" text-anchor="middle" font-size="15" font-weight="700" fill="#0a1628">Review</text>
    <text x="224" y="215" text-anchor="middle" font-size="12" fill="#6b6f78">Check facts,</text>
    <text x="224" y="230" text-anchor="middle" font-size="12" fill="#6b6f78">grammar &amp; policy</text>
  </g>

  <!-- arrow -->
  <g stroke="#9aa3af" stroke-width="2.5" fill="#9aa3af">
    <line x1="286" y1="154" x2="302" y2="154"/>
    <polygon points="302,147 314,154 302,161"/>
  </g>

  <!-- Approve -->
  <g>
    <rect x="302" y="78" width="116" height="152" rx="16" fill="#ecfaf2" stroke="#1f9d57" stroke-width="1.5"/>
    <circle cx="360" cy="136" r="18" fill="#1f9d57"/>
    <path d="M350 136 l6 8 l14 -16" fill="none" stroke="#ffffff" stroke-width="3" stroke-linecap="round" stroke-linejoin="round"/>
    <text x="360" y="196" text-anchor="middle" font-size="15" font-weight="700" fill="#0a1628">Approve</text>
    <text x="360" y="215" text-anchor="middle" font-size="12" fill="#6b6f78">Manager signs</text>
    <text x="360" y="230" text-anchor="middle" font-size="12" fill="#6b6f78">or stamps OK</text>
  </g>

  <!-- arrow -->
  <g stroke="#9aa3af" stroke-width="2.5" fill="#9aa3af">
    <line x1="422" y1="154" x2="438" y2="154"/>
    <polygon points="438,147 450,154 438,161"/>
  </g>

  <!-- Distribute -->
  <g>
    <rect x="438" y="78" width="116" height="152" rx="16" fill="#eef4fb" stroke="#0b4f8c" stroke-width="1.5"/>
    <rect x="478" y="120" width="36" height="26" rx="3" fill="#0b4f8c"/>
    <path d="M478 122 l18 12 l18 -12" fill="none" stroke="#ffffff" stroke-width="2"/>
    <text x="496" y="196" text-anchor="middle" font-size="15" font-weight="700" fill="#0a1628">Distribute</text>
    <text x="496" y="215" text-anchor="middle" font-size="12" fill="#6b6f78">Send to staff,</text>
    <text x="496" y="230" text-anchor="middle" font-size="12" fill="#6b6f78">ministry or bank</text>
  </g>

  <!-- arrow -->
  <g stroke="#9aa3af" stroke-width="2.5" fill="#9aa3af">
    <line x1="558" y1="154" x2="574" y2="154"/>
    <polygon points="574,147 586,154 574,161"/>
  </g>

  <!-- File -->
  <g>
    <rect x="574" y="78" width="116" height="152" rx="16" fill="#f7f8fa" stroke="#d8dee6" stroke-width="1.5"/>
    <rect x="604" y="128" width="56" height="36" rx="4" fill="#9aa3af"/>
    <path d="M604 132 h24 l4 8 h28" fill="none" stroke="#ffffff" stroke-width="2"/>
    <text x="632" y="196" text-anchor="middle" font-size="15" font-weight="700" fill="#0a1628">File</text>
    <text x="632" y="215" text-anchor="middle" font-size="12" fill="#6b6f78">Store in folder</text>
    <text x="632" y="230" text-anchor="middle" font-size="12" fill="#6b6f78">&amp; record register</text>
  </g>

  <text x="360" y="264" text-anchor="middle" font-size="11.5" fill="#9aa3af">A clear flow prevents lost, unauthorised or out-of-date documents.</text>
</svg>
